<mxfile host="app.diagrams.net" agent="Mozilla/5.0 (Macintosh; Intel Mac OS X 10_15_7) AppleWebKit/605.1.15 (KHTML, like Gecko) Version/18.0 Safari/605.1.15" version="24.7.17">
  <diagram id="prtHgNgQTEPvFCAcTncT" name="Page-1">
    <mxGraphModel dx="1148" dy="772" grid="1" gridSize="10" guides="1" tooltips="1" connect="1" arrows="1" fold="1" page="1" pageScale="1" pageWidth="827" pageHeight="1169" math="0" shadow="0">
      <root>
        <mxCell id="0" />
        <mxCell id="1" parent="0" />
        <mxCell id="YPZLDJ1wre2h32vTuNjH-23" value="&lt;font style=&quot;font-size: 20px;&quot;&gt;HBnB Evolution&lt;/font&gt;" style="shape=folder;fontStyle=1;spacingTop=10;tabWidth=40;tabHeight=14;tabPosition=left;html=1;whiteSpace=wrap;strokeColor=#000000;fontColor=#EEEEEE;fillColor=#09555B;strokeWidth=3;" parent="1" vertex="1">
          <mxGeometry x="250" y="40" width="430" height="50" as="geometry" />
        </mxCell>
        <mxCell id="YPZLDJ1wre2h32vTuNjH-24" value="" style="html=1;whiteSpace=wrap;strokeWidth=3;" parent="1" vertex="1">
          <mxGeometry x="250" y="90" width="430" height="440" as="geometry" />
        </mxCell>
        <mxCell id="YPZLDJ1wre2h32vTuNjH-26" value="&lt;font style=&quot;font-size: 16px;&quot;&gt;&quot; Interface &quot; - Presentation Layer&lt;/font&gt;" style="html=1;whiteSpace=wrap;strokeColor=#000000;fontColor=#EEEEEE;fillColor=#09555B;" parent="1" vertex="1">
          <mxGeometry x="260" y="100" width="410" height="30" as="geometry" />
        </mxCell>
        <mxCell id="YPZLDJ1wre2h32vTuNjH-27" value="&lt;font style=&quot;font-size: 16px;&quot;&gt;Business Logic Layer&lt;/font&gt;" style="html=1;whiteSpace=wrap;strokeColor=#000000;fontColor=#EEEEEE;fillColor=#09555B;" parent="1" vertex="1">
          <mxGeometry x="260" y="250" width="410" height="30" as="geometry" />
        </mxCell>
        <mxCell id="YPZLDJ1wre2h32vTuNjH-28" value="&lt;font style=&quot;font-size: 16px;&quot;&gt;Persistence Layer&amp;nbsp;&lt;/font&gt;" style="html=1;whiteSpace=wrap;strokeColor=#000000;fontColor=#EEEEEE;fillColor=#09555B;" parent="1" vertex="1">
          <mxGeometry x="260" y="430" width="410" height="30" as="geometry" />
        </mxCell>
        <mxCell id="YPZLDJ1wre2h32vTuNjH-30" value="&lt;font style=&quot;font-size: 14px;&quot;&gt;+Service&lt;/font&gt;" style="html=1;whiteSpace=wrap;align=left;" parent="1" vertex="1">
          <mxGeometry x="260" y="130" width="410" height="50" as="geometry" />
        </mxCell>
        <mxCell id="YPZLDJ1wre2h32vTuNjH-31" value="&lt;font style=&quot;font-size: 14px;&quot;&gt;+User&lt;/font&gt;&lt;div style=&quot;font-size: 14px;&quot;&gt;&lt;font style=&quot;font-size: 14px;&quot;&gt;+Place&lt;/font&gt;&lt;/div&gt;&lt;div style=&quot;font-size: 14px;&quot;&gt;&lt;font style=&quot;font-size: 14px;&quot;&gt;+Review&lt;/font&gt;&lt;/div&gt;&lt;div style=&quot;font-size: 14px;&quot;&gt;&lt;font style=&quot;font-size: 14px;&quot;&gt;+Amenity&lt;/font&gt;&lt;/div&gt;" style="html=1;whiteSpace=wrap;align=left;" parent="1" vertex="1">
          <mxGeometry x="260" y="280" width="410" height="90" as="geometry" />
        </mxCell>
        <mxCell id="YPZLDJ1wre2h32vTuNjH-32" value="&lt;font style=&quot;font-size: 14px;&quot;&gt;+DataBaseAccess&lt;/font&gt;&lt;div&gt;&lt;span style=&quot;font-size: 14px;&quot;&gt;+Save&lt;/span&gt;&lt;/div&gt;&lt;div&gt;&lt;span style=&quot;font-size: 14px;&quot;&gt;+Retrieve&lt;/span&gt;&lt;/div&gt;" style="html=1;whiteSpace=wrap;align=left;" parent="1" vertex="1">
          <mxGeometry x="260" y="460" width="410" height="60" as="geometry" />
        </mxCell>
        <mxCell id="YPZLDJ1wre2h32vTuNjH-35" value="Data Base&amp;nbsp;&lt;div&gt;Operations&lt;/div&gt;" style="text;html=1;align=center;verticalAlign=middle;whiteSpace=wrap;rounded=0;fontColor=#000000;" parent="1" vertex="1">
          <mxGeometry x="570" y="384" width="60" height="30" as="geometry" />
        </mxCell>
        <mxCell id="YPZLDJ1wre2h32vTuNjH-36" value="&lt;font color=&quot;#000000&quot;&gt;Use Facade Pattern&lt;/font&gt;" style="text;html=1;align=center;verticalAlign=middle;whiteSpace=wrap;rounded=0;fontColor=#EEEEEE;" parent="1" vertex="1">
          <mxGeometry x="570" y="197" width="60" height="30" as="geometry" />
        </mxCell>
        <mxCell id="YPZLDJ1wre2h32vTuNjH-39" value="&lt;i&gt;Interacts with&lt;/i&gt;" style="text;html=1;align=center;verticalAlign=middle;whiteSpace=wrap;rounded=0;fontColor=#B5B5B5;" parent="1" vertex="1">
          <mxGeometry x="300" y="196" width="100" height="30" as="geometry" />
        </mxCell>
        <mxCell id="YPZLDJ1wre2h32vTuNjH-40" value="&lt;i&gt;Interacts with&lt;/i&gt;" style="text;html=1;align=center;verticalAlign=middle;whiteSpace=wrap;rounded=0;fontColor=#B5B5B5;" parent="1" vertex="1">
          <mxGeometry x="300" y="383" width="100" height="30" as="geometry" />
        </mxCell>
        <mxCell id="WBLjysgrsB1cMVtSBwCD-1" value="" style="shape=cylinder3;whiteSpace=wrap;html=1;boundedLbl=1;backgroundOutline=1;size=15;strokeWidth=2;fillColor=#09555B;" vertex="1" parent="1">
          <mxGeometry x="720" y="425" width="60" height="115" as="geometry" />
        </mxCell>
        <mxCell id="WBLjysgrsB1cMVtSBwCD-2" value="Data&lt;div&gt;Base&lt;/div&gt;" style="text;html=1;align=center;verticalAlign=middle;whiteSpace=wrap;rounded=0;fontColor=#FFFFFF;fontStyle=1" vertex="1" parent="1">
          <mxGeometry x="720" y="475" width="60" height="30" as="geometry" />
        </mxCell>
        <mxCell id="WBLjysgrsB1cMVtSBwCD-4" value="" style="endArrow=classic;html=1;rounded=0;strokeColor=#000000;entryX=0.5;entryY=0;entryDx=0;entryDy=0;exitX=0.5;exitY=1;exitDx=0;exitDy=0;strokeWidth=3;" edge="1" parent="1">
          <mxGeometry width="50" height="50" relative="1" as="geometry">
            <mxPoint x="450" y="180" as="sourcePoint" />
            <mxPoint x="450" y="250" as="targetPoint" />
          </mxGeometry>
        </mxCell>
        <mxCell id="WBLjysgrsB1cMVtSBwCD-5" value="" style="endArrow=classic;html=1;rounded=0;strokeColor=#000000;strokeWidth=3;dashed=1;" edge="1" parent="1">
          <mxGeometry width="50" height="50" relative="1" as="geometry">
            <mxPoint x="470" y="430" as="sourcePoint" />
            <mxPoint x="470" y="370" as="targetPoint" />
          </mxGeometry>
        </mxCell>
        <mxCell id="WBLjysgrsB1cMVtSBwCD-6" value="" style="endArrow=classic;html=1;rounded=0;strokeColor=#000000;exitX=0.5;exitY=1;exitDx=0;exitDy=0;strokeWidth=3;" edge="1" parent="1">
          <mxGeometry width="50" height="50" relative="1" as="geometry">
            <mxPoint x="450" y="370" as="sourcePoint" />
            <mxPoint x="450" y="430" as="targetPoint" />
          </mxGeometry>
        </mxCell>
        <mxCell id="WBLjysgrsB1cMVtSBwCD-7" value="" style="endArrow=classic;html=1;rounded=0;strokeColor=#000000;strokeWidth=3;dashed=1;" edge="1" parent="1">
          <mxGeometry width="50" height="50" relative="1" as="geometry">
            <mxPoint x="468" y="250" as="sourcePoint" />
            <mxPoint x="468" y="180" as="targetPoint" />
          </mxGeometry>
        </mxCell>
        <mxCell id="WBLjysgrsB1cMVtSBwCD-10" value="" style="endArrow=classic;html=1;rounded=0;strokeColor=#000000;strokeWidth=3;entryX=0.998;entryY=0.633;entryDx=0;entryDy=0;entryPerimeter=0;" edge="1" parent="1">
          <mxGeometry width="50" height="50" relative="1" as="geometry">
            <mxPoint x="720" y="500.01" as="sourcePoint" />
            <mxPoint x="667.2" y="500" as="targetPoint" />
          </mxGeometry>
        </mxCell>
        <mxCell id="WBLjysgrsB1cMVtSBwCD-12" value="" style="endArrow=classic;html=1;rounded=0;strokeColor=#000000;strokeWidth=3;" edge="1" parent="1">
          <mxGeometry width="50" height="50" relative="1" as="geometry">
            <mxPoint x="670" y="482.47058823529414" as="sourcePoint" />
            <mxPoint x="720" y="482" as="targetPoint" />
          </mxGeometry>
        </mxCell>
      </root>
    </mxGraphModel>
  </diagram>
</mxfile>
